<svg id="Flat" height="512" viewBox="0 0 512 512" width="512" xmlns="http://www.w3.org/2000/svg"><path d="m136 400a16 16 0 0 1 -16 16h-32a16 16 0 0 1 -16-16v-168a16 16 0 0 1 16-16h32a16 16 0 0 1 16 16" fill="#58646f"/><path d="m120 216h-32a16 16 0 0 0 -16 16v48h64v-48a16 16 0 0 0 -16-16z" fill="#48525b"/><path d="m376 400a16 16 0 0 0 16 16h32a16 16 0 0 0 16-16v-168a16 16 0 0 0 -16-16h-32a16 16 0 0 0 -16 16" fill="#58646f"/><path d="m313.24 468.42h-114.48l7.64-76.42 2.75-27.48h93.7l2.75 27.48z" fill="#58646f"/><path d="m305.6 392h-99.2l2.75-27.48h93.7z" fill="#48525b"/><path d="m376 64v264h-240v-264a39.964 39.964 0 0 1 40-40h160a39.964 39.964 0 0 1 40 40z" fill="#ea4042"/><path d="m392 216h32a16 16 0 0 1 16 16v48h-64v-48a16 16 0 0 1 16-16z" fill="#48525b"/><rect fill="#48525b" height="32" rx="16" width="176" x="168" y="456"/><g fill="#d43431"><path d="m375.18 55.91-15.95 4.56a96.562 96.562 0 0 0 -60.47 51.53h-85.52a96.562 96.562 0 0 0 -60.47-51.53l-15.95-4.56a39.928 39.928 0 0 0 -.82 8.09v8.32l12.38 3.54a80.364 80.364 0 0 1 51.62 45.74v198.4h16v-48h80v48h16v-198.4a80.364 80.364 0 0 1 51.62-45.74l12.38-3.54v-8.32a39.928 39.928 0 0 0 -.82-8.09zm-79.18 200.09h-80v-32h80zm0-48h-80v-32h80zm0-48h-80v-32h80z"/><rect height="64" rx="24" width="304" x="104" y="312"/></g></svg>